HIERARCHY
ROOT Hips
{
	OFFSET 0.00000 0.00000 0.00000
	CHANNELS 6 Xposition Yposition Zposition Zrotation Yrotation Xrotation 
	JOINT LHipJoint
	{
		OFFSET 0 0 0
		CHANNELS 3 Zrotation Yrotation Xrotation
		JOINT LeftUpLeg
		{
			OFFSET 1.58895 -1.83665 0.71753
			CHANNELS 3 Zrotation Yrotation Xrotation
			JOINT LeftLeg
			{
				OFFSET 2.50528 -6.88321 0.00000
				CHANNELS 3 Zrotation Yrotation Xrotation
				JOINT LeftFoot
				{
					OFFSET 2.63244 -7.23257 0.00000
					CHANNELS 3 Zrotation Yrotation Xrotation
					JOINT LeftToeBase
					{
						OFFSET 0.23691 -0.65090 1.72750
						CHANNELS 3 Zrotation Yrotation Xrotation
						End Site
						{
							OFFSET 0.00000 -0.00000 0.92561
						}
					}
				}
			}
		}
	}
	JOINT RHipJoint
	{
		OFFSET 0 0 0
		CHANNELS 3 Zrotation Yrotation Xrotation
		JOINT RightUpLeg
		{
			OFFSET -1.51435 -1.83665 0.71753
			CHANNELS 3 Zrotation Yrotation Xrotation
			JOINT RightLeg
			{
				OFFSET -2.54551 -6.99375 0.00000
				CHANNELS 3 Zrotation Yrotation Xrotation
				JOINT RightFoot
				{
					OFFSET -2.66027 -7.30903 0.00000
					CHANNELS 3 Zrotation Yrotation Xrotation
					JOINT RightToeBase
					{
						OFFSET -0.22981 -0.63138 2.03959
						CHANNELS 3 Zrotation Yrotation Xrotation
						End Site
						{
							OFFSET -0.00000 -0.00000 1.07060
						}
					}
				}
			}
		}
	}
	JOINT LowerBack
	{
		OFFSET 0 0 0
		CHANNELS 3 Zrotation Yrotation Xrotation
		JOINT Spine
		{
			OFFSET -0.02651 1.86275 -0.11152
			CHANNELS 3 Zrotation Yrotation Xrotation
			JOINT Spine1
			{
				OFFSET 0.01019 1.86224 0.04087
				CHANNELS 3 Zrotation Yrotation Xrotation
				JOINT Neck
				{
					OFFSET 0 0 0
					CHANNELS 3 Zrotation Yrotation Xrotation
					JOINT Neck1
					{
						OFFSET -0.01926 1.80512 0.08867
						CHANNELS 3 Zrotation Yrotation Xrotation
						JOINT Head
						{
							OFFSET 0.05516 1.76451 -0.38475
							CHANNELS 3 Zrotation Yrotation Xrotation
							End Site
							{
								OFFSET 0.01592 1.82587 -0.14001
							}
						}
					}
				}
				JOINT LeftShoulder
				{
					OFFSET 0 0 0
					CHANNELS 3 Zrotation Yrotation Xrotation
					JOINT LeftArm
					{
						OFFSET 3.47116 1.51376 0.14491
						CHANNELS 3 Zrotation Yrotation Xrotation
						JOINT LeftForeArm
						{
							OFFSET 4.78095 -0.00000 0.00000
							CHANNELS 3 Zrotation Yrotation Xrotation
							JOINT LeftHand
							{
								OFFSET 3.58615 -0.00000 -0.00000
								CHANNELS 3 Zrotation Yrotation Xrotation
								JOINT LeftFingerBase
								{
									OFFSET 0 0 0
									CHANNELS 3 Zrotation Yrotation Xrotation
									JOINT LeftHandIndex1
									{
										OFFSET 0.65981 -0.00000 0.00000
										CHANNELS 3 Zrotation Yrotation Xrotation
										End Site
										{
											OFFSET 0.53196 -0.00000 0.00000
										}
									}
								}
								JOINT LThumb
								{
									OFFSET 0 0 0
									CHANNELS 3 Zrotation Yrotation Xrotation
									End Site
									{
										OFFSET 0.54008 -0.00000 0.54008
									}
								}
							}
						}
					}
				}
				JOINT RightShoulder
				{
					OFFSET 0 0 0
					CHANNELS 3 Zrotation Yrotation Xrotation
					JOINT RightArm
					{
						OFFSET -3.31725 1.61216 0.35156
						CHANNELS 3 Zrotation Yrotation Xrotation
						JOINT RightForeArm
						{
							OFFSET -4.48913 -0.00000 0.00000
							CHANNELS 3 Zrotation Yrotation Xrotation
							JOINT RightHand
							{
								OFFSET -3.70510 -0.00000 0.00000
								CHANNELS 3 Zrotation Yrotation Xrotation
								JOINT RightFingerBase
								{
									OFFSET 0 0 0
									CHANNELS 3 Zrotation Yrotation Xrotation
									JOINT RightHandIndex1
									{
										OFFSET -0.44914 -0.00000 0.00000
										CHANNELS 3 Zrotation Yrotation Xrotation
										End Site
										{
											OFFSET -0.36211 -0.00000 0.00000
										}
									}
								}
								JOINT RThumb
								{
									OFFSET 0 0 0
									CHANNELS 3 Zrotation Yrotation Xrotation
									End Site
									{
										OFFSET -0.36763 -0.00000 0.36763
									}
								}
							}
						}
					}
				}
			}
		}
	}
}
MOTION
Frames: 16
Frame Time: .0083333
-0.6264 18.6147 5.9902 0 0 0 0 0 0 -21 0 0 0 0 0 0 0 0 0 0 0 0 0 0 21 0 0 0 0 0 0 0 0 0 0 0 0 0 0 0 0 0 0 0 0 0 0 -16 0 0 21 0 0 11 0 0 0 -8 0 0 0 0 0 0 0 0 0 0 0 0 0 0 0 0 0 0 0 0 8 0 0 0 0 0 0 0 0 0 0 0 0 0 0 0 0 0
-0.6264 18.6147 5.9902 -2.7966 -3.2027 -0.5474 0.0000 0.0000 0.0000 -12.2460 -5.2322 -0.3514 1.4967 7.7280 21.8910 1.7729 4.8018 -27.2565 8.3599 -16.3777 -53.8489 0.0000 0.0000 0.0000 16.2511 -0.2792 10.0306 0.0000 -0.0000 0.0000 -0.8131 -2.7051 -18.2185 -0.1298 2.3225 -6.3979 0.5274 0.7005 2.0425 0.7081 0.9696 -1.5281 0.3888 0.4807 -2.7163 4.2157 4.8967 -8.8378 2.8061 5.4241 24.7148 0.8236 3.2252 9.2685 -0.0000 -0.0000 0.0000 -94.0098 14.5680 22.5748 22.7635 -33.8292 -7.0062 -0.0000 -0.0000 4.2308 6.2280 -22.8258 -2.4241 -7.1250 0.0000 -0.0000 -14.1797 7.5950 12.5830 -0.0000 -0.0000 0.0000 90.9500 -18.0698 24.5925 -23.2222 34.3309 -7.2632 0.0000 0.0000 20.1725 -3.3033 -37.0300 1.9908 7.1250 -0.0000 -0.0000 37.6995 -63.0655 -17.8131
-0.6260 18.6148 5.9914 -2.7960 -3.2006 -0.5278 0.0000 0.0000 0.0000 -12.2434 -5.2251 -0.3814 1.4986 7.7327 21.9051 1.7761 4.7731 -27.2639 8.3448 -16.3671 -53.7954 0.0000 0.0000 0.0000 16.2506 -0.2758 10.0115 0.0000 0.0000 -0.0000 -0.8141 -2.6869 -18.2197 -0.1252 2.2809 -6.2827 0.5067 0.7005 2.0015 0.7139 0.9685 -1.5158 0.4070 0.4806 -2.6811 4.2705 4.9020 -8.8448 2.7403 5.4377 24.6606 0.7927 3.2289 9.2549 -0.0000 0.0000 0.0000 -93.8783 14.5703 23.0567 22.7837 -33.8514 -7.0174 -0.0000 -0.0000 3.8183 6.3059 -22.2810 -2.3992 -7.1250 0.0000 -0.0000 -14.1349 8.1177 12.3906 -0.0000 0.0000 0.0000 90.9280 -18.0695 24.6404 -23.2402 34.3505 -7.2734 0.0000 0.0000 20.1117 -3.3213 -37.0690 2.0034 7.1250 -0.0000 -0.0000 37.7305 -63.1007 -17.8610
-0.6253 18.6144 5.9921 -2.8101 -3.1968 -0.5318 0.0000 0.0000 0.0000 -12.2335 -5.2376 -0.3708 1.4978 7.7307 21.8991 1.7768 4.7981 -27.2815 8.3549 -16.3742 -53.8310 0.0000 0.0000 0.0000 16.2650 -0.2813 10.0159 0.0000 0.0000 -0.0000 -0.8136 -2.6923 -18.2176 -0.1218 2.2495 -6.1957 0.7026 0.7519 2.4320 0.5959 1.0484 -1.8125 0.1643 0.5137 -3.2241 4.3886 4.8352 -8.6081 2.7838 5.3249 24.7692 0.7715 3.1934 9.2512 0.0000 0.0000 0.0000 -93.3965 15.1200 23.9440 22.6639 -33.7193 -6.9508 -0.0000 -0.0000 3.0565 6.5435 -22.7185 -2.5365 -7.1250 0.0000 -0.0000 -13.9860 7.6725 12.3779 0.0000 0.0000 0.0000 91.1660 -18.5552 24.4462 -23.2981 34.4132 -7.3061 0.0000 0.0000 20.1092 -3.3648 -37.1380 2.0330 7.1250 -0.0000 -0.0000 37.7741 -63.1661 -17.9423
-0.6246 18.6137 5.9932 -2.7968 -3.1964 -0.5558 0.0000 0.0000 0.0000 -12.2539 -5.2312 -0.3422 1.4976 7.7302 21.8976 1.7774 4.8052 -27.2892 8.3571 -16.3757 -53.8389 0.0000 0.0000 0.0000 16.2451 -0.2916 10.0497 0.0000 0.0000 -0.0000 -0.8168 -2.6710 -18.2398 -0.1138 2.1748 -5.9889 0.7420 0.7731 2.5925 0.5512 1.0798 -1.9027 0.0915 0.5271 -3.4062 4.4377 4.8101 -8.5243 2.7870 5.2853 24.7654 0.7578 3.1798 9.2357 0.0000 0.0000 0.0000 -92.1985 12.8888 26.9700 18.9624 -29.3720 -5.0124 -0.0000 -0.0000 0.1211 8.8735 -24.9190 -3.7635 -7.1250 0.0000 -0.0000 -12.5857 5.3015 11.6601 0.0000 0.0000 0.0000 91.2580 -18.6919 24.3567 -23.2967 34.4116 -7.3053 0.0000 0.0000 20.1370 -3.4112 -37.1729 2.0627 7.1250 -0.0000 -0.0000 37.7720 -63.2055 -17.9758
-0.6239 18.6132 5.9938 -2.7589 -3.1820 -0.5672 0.0000 0.0000 0.0000 -12.2918 -5.1925 -0.3484 1.4972 7.7292 21.8947 1.7704 4.7912 -27.2336 8.3606 -16.3782 -53.8514 0.0000 0.0000 0.0000 16.1984 -0.3091 10.0608 0.0000 -0.0000 0.0000 -0.8174 -2.6593 -18.2400 -0.1166 2.2011 -6.0617 0.6861 0.7668 2.6051 0.5481 1.0690 -1.9000 0.1201 0.5230 -3.4116 4.3993 4.8129 -8.5373 2.8380 5.2832 24.7394 0.7810 3.1804 9.2261 0.0000 -0.0000 0.0000 -92.2355 12.9033 26.9188 18.9649 -29.3750 -5.0136 -0.0000 -0.0000 0.1753 8.9036 -24.8706 -3.7696 -7.1250 0.0000 -0.0000 -12.5663 5.3457 11.6305 0.0000 -0.0000 0.0000 91.2433 -18.6558 24.3456 -23.2596 34.3715 -7.2843 0.0000 0.0000 20.2066 -3.4168 -37.1678 2.0658 7.1250 -0.0000 -0.0000 37.7600 -63.2030 -17.9670
-0.6240 18.6127 5.9947 -2.7442 -3.1769 -0.5747 0.0000 0.0000 0.0000 -12.3022 -5.1418 -0.3614 1.4966 7.7277 21.8902 1.7583 4.8130 -27.1617 8.3930 -16.4008 -53.9662 0.0000 0.0000 0.0000 16.1817 -0.3158 10.0664 0.0000 0.0000 -0.0000 -0.8149 -2.6623 -18.2156 -0.1201 2.2344 -6.1540 0.6571 0.7669 2.6150 0.5463 1.0681 -1.9001 0.1344 0.5232 -3.4177 4.3386 4.8119 -8.5418 2.9128 5.2749 24.7125 0.8151 3.1785 9.2130 -0.0000 0.0000 0.0000 -92.2464 12.9108 26.9323 18.9601 -29.3690 -5.0112 -0.0000 -0.0000 0.1611 8.9029 -24.8064 -3.7602 -7.1250 0.0000 -0.0000 -12.5652 5.4087 11.6140 -0.0000 0.0000 0.0000 91.2410 -18.6237 24.2927 -23.2285 34.3377 -7.2668 0.0000 0.0000 20.3294 -3.3602 -37.1553 2.0310 7.1250 -0.0000 -0.0000 37.8004 -63.1784 -17.9675
-0.6238 18.6125 5.9964 -2.7599 -3.1908 -0.5626 0.0000 0.0000 0.0000 -12.2807 -5.1159 -0.3759 1.4967 7.7279 21.8905 1.7561 4.8173 -27.1483 8.4047 -16.4090 -54.0078 0.0000 0.0000 0.0000 16.1994 -0.3003 10.0612 0.0000 0.0000 -0.0000 -0.8161 -2.6499 -18.2218 -0.1120 2.1579 -5.9423 0.6651 0.7747 2.5930 0.5422 1.0784 -1.9008 0.1255 0.5281 -3.4057 4.3317 4.8092 -8.5268 2.9340 5.2686 24.6696 0.8213 3.1766 9.1943 -0.0000 -0.0000 0.0000 -92.2355 12.9058 26.9283 18.9461 -29.3516 -5.0044 -0.0000 -0.0000 0.1733 8.8723 -24.8485 -3.7530 -7.1250 0.0000 -0.0000 -12.5848 5.3707 11.6423 -0.0000 -0.0000 0.0000 91.2621 -18.6066 24.2422 -23.2207 34.3293 -7.2624 0.0000 0.0000 20.3961 -3.2453 -37.1850 1.9627 7.1250 -0.0000 -0.0000 37.9514 -63.1712 -18.0437
-0.6226 18.6123 5.9966 -2.7759 -3.1653 -0.5450 0.0000 0.0000 0.0000 -12.2643 -5.1565 -0.3856 1.4975 7.7298 21.8965 1.7652 4.7737 -27.1890 8.3841 -16.3947 -53.9348 0.0000 0.0000 0.0000 16.2127 -0.3201 10.0383 0.0000 0.0000 -0.0000 -0.8169 -2.6444 -18.2265 -0.1092 2.1308 -5.8672 0.6771 0.7673 2.5920 0.5421 1.0692 -1.9115 0.1190 0.5232 -3.4161 4.3014 4.7988 -8.5122 2.9665 5.2529 24.6456 0.8346 3.1695 9.1810 0.0000 -0.0000 0.0000 -92.2633 12.9087 26.8347 18.9368 -29.3400 -4.9998 -0.0000 -0.0000 0.2408 8.8554 -24.9187 -3.7557 -7.1250 0.0000 -0.0000 -12.5966 5.3037 11.6703 0.0000 -0.0000 0.0000 91.2719 -18.6144 24.2004 -23.2272 34.3363 -7.2660 0.0000 0.0000 20.4260 -3.0639 -37.1910 1.8531 7.1250 -0.0000 -0.0000 38.1382 -63.1279 -18.1077
-0.6219 18.6124 5.9966 -2.7765 -3.1206 -0.5453 0.0000 0.0000 0.0000 -12.2660 -5.1958 -0.3861 1.4982 7.7315 21.9016 1.7697 4.7489 -27.2073 8.3810 -16.3925 -53.9237 0.0000 0.0000 0.0000 16.2094 -0.3638 10.0290 0.0000 0.0000 -0.0000 -0.8139 -2.6658 -18.2069 -0.1096 2.1350 -5.8789 0.6681 0.7577 2.6279 0.5452 1.0566 -1.9271 0.1273 0.5171 -3.4527 4.2050 4.7819 -8.5010 3.0564 5.2256 24.6392 0.8776 3.1574 9.1703 0.0000 0.0000 0.0000 -92.3086 12.9473 26.7603 18.9608 -29.3700 -5.0116 -0.0000 -0.0000 0.2787 8.8668 -24.8870 -3.7561 -7.1250 0.0000 -0.0000 -12.5890 5.3335 11.6555 0.0000 0.0000 0.0000 91.2712 -18.6330 24.1432 -23.2298 34.3392 -7.2675 0.0000 0.0000 20.4595 -2.8804 -37.1122 1.7389 7.1250 -0.0000 -0.0000 38.2199 -63.0182 -18.0548
-0.6223 18.6129 5.9976 -2.7771 -3.1021 -0.5381 0.0000 0.0000 0.0000 -12.2623 -5.1945 -0.4023 1.4985 7.7323 21.9038 1.7646 4.7605 -27.1778 8.3893 -16.3983 -53.9531 0.0000 0.0000 0.0000 16.2111 -0.3819 10.0233 0.0000 0.0000 -0.0000 -0.8118 -2.6929 -18.1993 -0.1108 2.1463 -5.9102 0.6409 0.7471 2.6421 0.5515 1.0419 -1.9486 0.1495 0.5103 -3.4837 4.1251 4.7753 -8.4308 3.1439 5.2142 24.5983 0.9162 3.1534 9.1373 0.0000 0.0000 0.0000 -92.3660 13.0359 26.7220 19.1022 -29.5454 -5.0811 -0.0000 -0.0000 0.3087 8.8211 -24.3172 -3.6564 -7.1250 0.0000 -0.0000 -12.6044 5.8969 11.5320 0.0000 0.0000 0.0000 91.2628 -18.6636 24.1288 -23.2322 34.3417 -7.2688 0.0000 0.0000 20.4444 -2.9300 -37.0305 1.7656 7.1250 -0.0000 -0.0000 38.0687 -62.9678 -17.9275
-0.6225 18.6130 5.9984 -2.7811 -3.0855 -0.5214 0.0000 0.0000 0.0000 -12.2596 -5.2230 -0.4150 1.4989 7.7333 21.9069 1.7627 4.7821 -27.1759 8.3861 -16.3960 -53.9419 0.0000 0.0000 0.0000 16.2152 -0.3949 10.0072 0.0000 0.0000 -0.0000 -0.8123 -2.6983 -18.2073 -0.1193 2.2263 -6.1315 0.6296 0.7370 2.6282 0.5443 1.0277 -1.9644 0.1493 0.5034 -3.4922 4.0819 4.7699 -8.3432 3.2161 5.2028 24.5396 0.9425 3.1507 9.0967 -0.0000 0.0000 0.0000 -92.4097 13.1101 26.7484 19.3060 -29.7972 -5.1820 -0.0000 -0.0000 0.3532 8.7955 -23.2846 -3.5001 -7.1250 0.0000 -0.0000 -12.6025 6.9121 11.2775 -0.0000 0.0000 0.0000 91.2893 -18.6840 24.0964 -23.2393 34.3494 -7.2729 0.0000 0.0000 20.4358 -3.1334 -37.0168 1.8877 7.1250 -0.0000 -0.0000 37.8511 -63.0106 -17.8471
-0.6214 18.6124 5.9998 -2.7927 -3.0745 -0.5080 0.0000 0.0000 0.0000 -12.2584 -5.2858 -0.4009 1.5002 7.7366 21.9168 1.7738 4.7541 -27.2381 8.3594 -16.3774 -53.8473 0.0000 0.0000 0.0000 16.2237 -0.4024 9.9937 0.0000 0.0000 -0.0000 -0.8145 -2.6831 -18.2219 -0.1192 2.2260 -6.1307 0.6628 0.7416 2.5949 0.5193 1.0340 -1.9635 0.1051 0.5055 -3.4714 4.0499 4.7573 -8.3184 3.2687 5.1800 24.5116 0.9618 3.1422 9.0795 0.0000 0.0000 0.0000 -92.3832 13.1108 26.7295 19.3024 -29.7927 -5.1802 -0.0000 -0.0000 0.4186 8.8672 -23.3234 -3.5345 -7.1250 0.0000 -0.0000 -12.5590 6.8669 11.2478 0.0000 0.0000 0.0000 91.3463 -18.6752 24.0357 -23.2391 34.3492 -7.2727 0.0000 0.0000 20.4422 -3.2033 -37.0781 1.9326 7.1250 -0.0000 -0.0000 37.8586 -63.0767 -17.9096
-0.6202 18.6123 6.0017 -2.8204 -3.0708 -0.4891 0.0000 0.0000 0.0000 -12.2412 -5.3532 -0.3924 1.5025 7.7423 21.9340 1.7851 4.7291 -27.3026 8.3350 -16.3602 -53.7605 0.0000 0.0000 0.0000 16.2498 -0.4027 9.9803 0.0000 0.0000 -0.0000 -0.8158 -2.6570 -18.2221 -0.1142 2.1785 -5.9991 0.7074 0.7428 2.5616 0.5106 1.0368 -1.9672 0.0715 0.5058 -3.4555 4.0276 4.7406 -8.2978 3.2742 5.1606 24.5048 0.9645 3.1315 9.0722 0.0000 -0.0000 0.0000 -92.3472 13.0832 26.4806 19.0447 -29.4742 -5.0528 -0.0000 -0.0000 0.5805 8.8844 -24.8993 -3.7654 -7.1250 0.0000 -0.0000 -12.5786 5.3197 11.6488 0.0000 -0.0000 0.0000 91.3599 -18.6494 24.0113 -23.2086 34.3162 -7.2556 0.0000 0.0000 20.4454 -3.1964 -37.1634 1.9322 7.1250 -0.0000 -0.0000 37.9726 -63.1415 -18.0291
-0.6195 18.6129 6.0030 -2.8491 -3.0612 -0.4647 0.0000 0.0000 0.0000 -12.2142 -5.3862 -0.4203 1.5057 7.7501 21.9575 1.7866 4.7495 -27.3239 8.3436 -16.3662 -53.7909 0.0000 0.0000 0.0000 16.2796 -0.4067 9.9579 0.0000 0.0000 -0.0000 -0.8142 -2.6545 -18.2044 -0.1132 2.1689 -5.9728 0.7398 0.7400 2.5419 0.5135 1.0344 -1.9776 0.0567 0.5038 -3.4545 4.0030 4.7142 -8.2687 3.2703 5.1303 24.5137 0.9634 3.1147 9.0689 -0.0000 0.0000 0.0000 -92.3338 13.1390 26.7357 19.2240 -29.6960 -5.1413 -0.0000 -0.0000 0.4094 8.7028 -23.8964 -3.5482 -7.1250 0.0000 -0.0000 -12.6689 6.3214 11.4883 -0.0000 0.0000 0.0000 91.3359 -18.6420 24.0079 -23.1875 34.2932 -7.2436 0.0000 0.0000 20.4601 -3.1451 -37.2052 1.9030 7.1250 -0.0000 -0.0000 38.0759 -63.1604 -18.1024
-0.6188 18.6132 6.0038 -2.8749 -3.0630 -0.4478 0.0000 0.0000 0.0000 -12.1779 -5.3539 -0.4604 1.5091 7.7584 21.9827 1.7864 4.7244 -27.3094 8.3428 -16.3657 -53.7883 0.0000 0.0000 0.0000 16.3099 -0.4009 9.9426 0.0000 -0.0000 0.0000 -0.8128 -2.6745 -18.1999 -0.1097 2.1358 -5.8812 0.7764 0.7447 2.5258 0.5119 1.0419 -1.9746 0.0343 0.5067 -3.4416 3.9489 4.6932 -8.2817 3.2889 5.1051 24.5223 0.9766 3.1001 9.0717 -0.0000 -0.0000 0.0000 -92.3533 13.1691 26.6054 19.2085 -29.6770 -5.1337 -0.0000 -0.0000 0.5231 8.7021 -24.3119 -3.6057 -7.1250 0.0000 -0.0000 -12.6768 5.9142 11.5974 -0.0000 -0.0000 0.0000 91.2973 -18.6986 24.0490 -23.2369 34.3469 -7.2715 0.0000 0.0000 20.4251 -3.1367 -37.1448 1.8952 7.1250 -0.0000 -0.0000 38.0081 -63.1112 -18.0217
